<mxfile host="app.diagrams.net" agent="Mozilla/5.0 (Windows NT 10.0; Win64; x64) AppleWebKit/537.36 (KHTML, like Gecko) Chrome/131.0.0.0 Safari/537.36" version="25.0.3">
  <diagram name="Страница — 1" id="26g38Lpi_LiVlZbMlhuH">
    <mxGraphModel dx="1434" dy="746" grid="1" gridSize="10" guides="1" tooltips="1" connect="1" arrows="1" fold="1" page="1" pageScale="1" pageWidth="827" pageHeight="1169" math="0" shadow="0">
      <root>
        <mxCell id="0" />
        <mxCell id="1" parent="0" />
        <mxCell id="U4Jn9C0jq0-JPjRTwGux-1" style="edgeStyle=orthogonalEdgeStyle;rounded=0;orthogonalLoop=1;jettySize=auto;html=1;" edge="1" parent="1" source="U4Jn9C0jq0-JPjRTwGux-2">
          <mxGeometry relative="1" as="geometry">
            <mxPoint x="370" y="90" as="targetPoint" />
          </mxGeometry>
        </mxCell>
        <mxCell id="U4Jn9C0jq0-JPjRTwGux-2" value="Начало&lt;div&gt;Descending&lt;/div&gt;" style="rounded=1;whiteSpace=wrap;html=1;" vertex="1" parent="1">
          <mxGeometry x="300" y="10" width="140" height="40" as="geometry" />
        </mxCell>
        <mxCell id="U4Jn9C0jq0-JPjRTwGux-3" style="edgeStyle=orthogonalEdgeStyle;rounded=0;orthogonalLoop=1;jettySize=auto;html=1;" edge="1" parent="1" source="U4Jn9C0jq0-JPjRTwGux-4" target="U4Jn9C0jq0-JPjRTwGux-6">
          <mxGeometry relative="1" as="geometry">
            <mxPoint x="370" y="210" as="targetPoint" />
          </mxGeometry>
        </mxCell>
        <mxCell id="U4Jn9C0jq0-JPjRTwGux-4" value="Ввести a,b" style="shape=parallelogram;perimeter=parallelogramPerimeter;whiteSpace=wrap;html=1;fixedSize=1;" vertex="1" parent="1">
          <mxGeometry x="290" y="90" width="160" height="60" as="geometry" />
        </mxCell>
        <mxCell id="U4Jn9C0jq0-JPjRTwGux-5" style="edgeStyle=orthogonalEdgeStyle;rounded=0;orthogonalLoop=1;jettySize=auto;html=1;" edge="1" parent="1" source="U4Jn9C0jq0-JPjRTwGux-6" target="U4Jn9C0jq0-JPjRTwGux-7">
          <mxGeometry relative="1" as="geometry">
            <mxPoint x="370" y="270" as="targetPoint" />
          </mxGeometry>
        </mxCell>
        <mxCell id="U4Jn9C0jq0-JPjRTwGux-6" value="Descending = a &amp;lt; b" style="rounded=0;whiteSpace=wrap;html=1;" vertex="1" parent="1">
          <mxGeometry x="290" y="180" width="160" height="40" as="geometry" />
        </mxCell>
        <mxCell id="U4Jn9C0jq0-JPjRTwGux-7" value="Конец&lt;div&gt;Descending&lt;/div&gt;" style="rounded=1;whiteSpace=wrap;html=1;" vertex="1" parent="1">
          <mxGeometry x="290" y="250" width="160" height="40" as="geometry" />
        </mxCell>
        <mxCell id="U4Jn9C0jq0-JPjRTwGux-8" value="" style="strokeWidth=2;html=1;shape=mxgraph.flowchart.annotation_2;align=left;labelPosition=right;pointerEvents=1;" vertex="1" parent="1">
          <mxGeometry x="450" y="95" width="50" height="50" as="geometry" />
        </mxCell>
        <mxCell id="U4Jn9C0jq0-JPjRTwGux-9" value="по значению" style="text;html=1;align=center;verticalAlign=middle;resizable=0;points=[];autosize=1;strokeColor=none;fillColor=none;" vertex="1" parent="1">
          <mxGeometry x="470" y="105" width="90" height="30" as="geometry" />
        </mxCell>
      </root>
    </mxGraphModel>
  </diagram>
</mxfile>
